PathFileType	4	(X/Y/Z)	/Users/mathieubourgeois/Desktop/Analyse/Traitement/Sujet_03/Data/Transformed_Sujet_03_velo_60.trc
DataRate	CameraRate	NumFrames	NumMarkers	Units	OrigDataRate	OrigDataStartFrame	OrigNumFrames
120.000000	120.000000	4	36	mm	120.000000	0	1854
Frame#	Time	RFHD			LFHD			RBHD			LBHD			C7			CLAV			RSHO			LSHO			STRN			T10			RBWT			LBWT			RFWT			LFWT			RKNI			LKNI			RKNE			LKNE			LANI			RANI			LANE			RANE			LTOE			RTOE			LHEE			RHEE			RHUM			LHUM			RRAD			LRAD			RWRA			RWRB			LWRA			LWRB			LCAR			RCAR			
		X1	Y1	Z1	X2	Y2	Z2	X3	Y3	Z3	X4	Y4	Z4	X5	Y5	Z5	X6	Y6	Z6	X7	Y7	Z7	X8	Y8	Z8	X9	Y9	Z9	X10	Y10	Z10	X11	Y11	Z11	X12	Y12	Z12	X13	Y13	Z13	X14	Y14	Z14	X15	Y15	Z15	X16	Y16	Z16	X17	Y17	Z17	X18	Y18	Z18	X19	Y19	Z19	X20	Y20	Z20	X21	Y21	Z21	X22	Y22	Z22	X23	Y23	Z23	X24	Y24	Z24	X25	Y25	Z25	X26	Y26	Z26	X27	Y27	Z27	X28	Y28	Z28	X29	Y29	Z29	X30	Y30	Z30	X31	Y31	Z31	X32	Y32	Z32	X33	Y33	Z33	X34	Y34	Z34	X35	Y35	Z35	X36	Y36	Z36	

1	0	149.9061584472656	1569.98193359375	102.7339477539062	129.6579284667969	1565.317260742188	-49.61242294311531	37.23545455932616	1639.017333984375	118.4933395385741	8.75278472900391	1649.957397460938	-27.9802131652833	-115.8921890258789	1560.806396484375	45.96287155151357	-80.37727355957031	1407.426025390625	44.35505676269522	-56.03889465332034	1481.448364257812	223.9867858886718	-85.74017333984374	1504.510620117188	-144.611785888672	-175.5847930908203	1268.240478515625	42.58954620361318	-332.3486938476562	1459.031860351562	47.49903869628893	-522.8445434570312	1261.338134765625	119.9989776611327	-527.7026977539062	1258.689453125	-3.616769313812398	-369.4915771484375	1196.36669921875	173.7391357421874	-377.6261596679688	1179.628540039062	-67.99708557128918	-26.46586990356447	910.3497314453125	118.1437759399413	-178.3214263916016	692.8077392578125	-54.86872863769538	-36.59775161743167	950.5542602539062	230.3973388671874	-181.0394134521484	740.8654174804688	-165.0930633544923	-392.2997741699219	384.2877502441406	-57.40578460693366	-172.1372222900391	568.6839599609375	121.1568069458007	-420.0281372070312	365.1333923339844	-141.9668579101563	-194.1056823730469	552.9010620117188	210.8090057373046	-278.747314453125	214.8794097900391	-85.89593505859379	-13.99304580688478	444.2438659667969	151.0204315185547	-490.5794677734375	377.7239685058594	-100.3556747436524	-268.6667175292969	537.0824584960938	167.1127624511718	27.84221267700192	1192.701049804688	224.8091735839843	8.505748748779313	1199.2958984375	-132.647933959961	80.39069366455075	1213.46240234375	280.1799316406249	53.10729598999026	1230.120239257812	-194.8270111083985	291.1759643554688	1049.985595703125	208.9795532226562	267.9694519042968	1035.400634765625	286.6907043457031	247.3204650878907	1059.865478515625	-125.7012176513672	222.2912292480469	1044.625732421875	-201.5550079345703	318.3153991699219	1033.306274414062	-223.8016967773438	367.7519226074218	1011.751647949219	304.80712890625	
2	0.008333333333333333	149.7495727539062	1569.573608398438	102.6566162109374	129.5648803710938	1564.92822265625	-49.69709396362313	37.19435119628905	1638.759765625	118.3742218017577	8.758372306823734	1649.740966796875	-28.11561775207529	-116.0378952026367	1560.694702148438	45.77783584594716	-80.53717803955078	1407.293701171875	44.19578170776358	-56.28136825561526	1481.29541015625	223.8406219482421	-85.88525390624999	1504.352783203125	-144.838363647461	-175.7951507568359	1268.191772460938	42.36956024169912	-332.5689697265625	1459.008178710938	47.30791854858385	-523.0170288085938	1261.138427734375	119.8225021362303	-526.9730834960938	1258.888061523438	-3.598308324813984	-369.6228942871094	1196.195678710938	173.6862792968749	-377.5302734375	1179.5908203125	-68.09400177001964	-27.50074005126955	904.8582763671875	117.9968032836913	-174.7070922851562	696.38232421875	-56.95740890502936	-38.2880554199219	945.0256958007812	230.5913391113281	-178.2668304443359	743.5938110351562	-166.3062896728516	-396.398681640625	391.6708374023438	-56.41734695434577	-167.9130859375	561.2686157226562	121.0680160522461	-423.5758666992188	373.2661743164062	-141.4734497070313	-189.6005096435547	544.2161254882812	210.4386444091796	-284.4664306640625	221.0524444580078	-85.74913787841801	-8.308634757995623	437.5200805664062	150.7264709472656	-493.8614501953125	386.557373046875	-99.34705352783212	-264.0506591796875	527.52783203125	166.9797210693359	27.5016117095947	1191.931640625	225.0718841552734	8.333578109741227	1199.112060546875	-133.0100097656251	80.24320983886716	1213.378784179688	280.0878906249999	53.02366256713869	1229.998779296875	-195.1045532226563	291.1284484863281	1050.015747070312	208.8980255126953	267.9361267089843	1035.41455078125	286.620361328125	247.2819061279297	1059.875854492188	-125.8212127685547	222.2748260498047	1044.590209960938	-201.6613311767578	318.2898559570312	1033.278686523438	-223.8993530273438	367.7212829589843	1011.796630859375	304.7330322265625	
3	0.01666666666666667	149.5906524658203	1569.458984375	102.6690368652343	129.4705963134766	1564.58154296875	-49.81218338012703	37.15921401977538	1638.544311523438	118.2310104370116	8.79099273681641	1649.5810546875	-28.26164627075205	-116.1726150512695	1560.594116210938	45.54596710205067	-80.69583129882812	1407.181396484375	44.02024078369131	-56.46852874755862	1481.138061523438	223.6447296142577	-86.00143432617186	1504.21533203125	-145.0899047851563	-175.9090423583984	1268.130004882812	42.10069274902334	-332.7680969238281	1458.981689453125	47.09572982788072	-523.1633911132812	1260.919311523438	119.6303863525389	-527.8458862304688	1258.414184570312	-3.987829446792745	-369.2440795898438	1196.561157226562	175.1221313476561	-377.4157409667969	1179.569946289062	-68.17657470703136	-28.8969078063965	899.2842407226562	118.0017089843749	-171.9328918457031	699.5674438476562	-58.18955612182624	-40.1934623718262	939.1688842773438	230.7747955322265	-174.1828460693359	746.6192016601562	-167.6782836914063	-399.4331665039062	399.7749938964844	-55.83940505981452	-157.9297027587891	552.3329467773438	122.2729110717773	-426.9130554199219	381.7454528808594	-140.948959350586	-185.4607238769532	535.31494140625	210.2464752197265	-290.3907775878906	226.9780731201172	-85.87139892578131	-2.961703538894672	430.4198303222656	150.4551849365234	-497.0077514648438	396.0739135742188	-98.69031524658212	-259.5796813964844	517.8213500976562	166.6940002441406	27.35911560058591	1191.781860351562	224.9870147705077	8.158242225646989	1198.980590820312	-133.3527221679688	80.10276794433591	1213.296020507812	279.9646911621093	52.91918945312502	1229.907836914062	-195.3687896728516	291.0975646972656	1050.038452148438	208.8183135986328	267.8989562988281	1035.4345703125	286.5493774414062	247.2474822998047	1059.873413085938	-125.9335556030274	222.2634582519532	1044.544677734375	-201.7858276367188	318.2848205566406	1033.239135742188	-223.984848022461	367.6136474609374	1011.902221679688	304.7826843261719	
4	0.025	149.4306030273438	1569.231079101562	102.5947036743163	129.4281768798828	1564.271240234375	-49.93104553222664	37.13486099243163	1638.351928710938	118.0698776245116	8.813944816589359	1649.41845703125	-28.41928672790537	-116.3003234863281	1560.538818359375	45.31250762939442	-80.82407379150391	1407.076416015625	43.80096435546866	-56.63080978393558	1481.001342773438	223.4313659667968	-86.09536743164061	1504.109130859375	-145.3974609375001	-175.975830078125	1268.056396484375	41.76361465454092	-332.9273681640625	1458.960693359375	46.88285827636705	-523.2536010742188	1260.716552734375	119.4632644653319	-527.9258422851562	1258.248046875	-4.180673122406148	-369.3019409179688	1196.36767578125	175.2313690185545	-377.2698059082031	1179.55908203125	-68.28219604492199	-30.87322425842287	892.383544921875	117.2813339233398	-168.3288726806641	703.0667724609375	-59.3770713806153	-42.39077377319339	932.622802734375	231.0667572021484	-170.5956726074218	749.7667846679688	-168.9885711669923	-407.1530151367188	407.4322204589844	-53.40498352050789	-153.4130249023438	543.2552490234375	122.2316589355468	-429.8784790039062	390.3523864746094	-140.3011932373048	-181.5369873046875	526.0140991210938	210.0922241210937	-294.726318359375	234.8465118408203	-85.48805999755865	2.042084693908673	422.7673950195312	150.1413421630859	-499.3997497558594	405.4466247558594	-97.08712768554696	-255.392822265625	507.8370361328125	166.4378356933593	28.41231155395505	1191.2744140625	222.4862823486327	8.047295570373551	1198.872924804688	-133.6834869384766	79.7565994262695	1213.79931640625	280.0639343261718	53.67378997802737	1229.556640625	-195.5585479736329	292.5504150390625	1049.888793945312	209.0420227050781	267.8707885742187	1035.44873046875	286.4751892089844	247.0947875976563	1059.689208984375	-126.0685195922852	220.6456451416016	1044.568115234375	-200.7779541015625	318.2891845703125	1033.200073242188	-224.0613098144532	367.6974487304687	1011.849914550781	304.5238647460938	
